<svg data-v-0dd9719b="" version="1.0" xmlns="http://www.w3.org/2000/svg" xmlns:xlink="http://www.w3.org/1999/xlink" width="100%" height="100%" viewBox="0 0 340.000000 250.000000" preserveAspectRatio="xMidYMid meet" color-interpolation-filters="sRGB" style="margin: auto;"> <rect data-v-0dd9719b="" x="0" y="0" width="100%" height="100%" fill="#080F25" fill-opacity="1" class="background"></rect> <rect data-v-0dd9719b="" x="0" y="0" width="100%" height="100%" fill="url(#watermark)" fill-opacity="1" class="watermarklayer"></rect> <g data-v-0dd9719b="" fill="#ffffff" class="iconlinesvg-g iconlinesvg" transform="translate(82.23427891731262,109.7426118850708)"><g class="tp-name"><g transform="translate(0, 0)"><g data-gra="path-name" fill="#ffffff" transform="scale(1)"><path d="M5.82 0Q5.04 0 4.51-0.53Q3.97-1.06 3.97-1.84L3.97-1.84L3.97-26.70Q3.97-27.48 4.51-28.03Q5.04-28.59 5.82-28.59L5.82-28.59L22.24-28.59Q22.98-28.59 23.49-28.08Q24.00-27.56 24.00-26.83L24.00-26.83Q24.00-26.09 23.49-25.60Q22.98-25.11 22.24-25.11L22.24-25.11L7.70-25.11L7.70-16.05L20.76-16.05Q21.50-16.05 22.01-15.54Q22.53-15.03 22.53-14.29L22.53-14.29Q22.53-13.56 22.01-13.06Q21.50-12.57 20.76-12.57L20.76-12.57L7.70-12.57L7.70-3.48L22.24-3.48Q22.98-3.48 23.49-2.97Q24.00-2.46 24.00-1.72L24.00-1.72Q24.00-0.98 23.49-0.49Q22.98 0 22.24 0L22.24 0L5.82 0Z" transform="translate(-3.972696245733789, 30.10238907849829)"></path></g></g><g transform="translate(24, 0)"><g data-gra="path-name" fill="#ffffff" transform="scale(1)"><path d="M3.85 0.20Q3.03 0.20 2.56-0.31Q2.09-0.82 2.09-1.68L2.09-1.68Q2.09-2.29 2.50-2.83L2.50-2.83L8.85-10.32L2.50-18.06Q2.05-18.63 2.05-19.25L2.05-19.25Q2.05-20.07 2.58-20.58Q3.11-21.09 3.89-21.09L3.89-21.09Q4.87-21.09 5.37-20.40L5.37-20.40L11.10-13.31L16.79-20.40Q17.28-21.09 18.23-21.09L18.23-21.09Q19.04-21.09 19.58-20.58Q20.11-20.07 20.11-19.33L20.11-19.33Q20.11-18.72 19.70-18.18L19.70-18.18L13.23-10.57L19.62-2.87Q20.07-2.38 20.07-1.68L20.07-1.68Q20.07-0.90 19.58-0.35Q19.09 0.20 18.18 0.20L18.18 0.20Q17.28 0.20 16.75-0.53L16.75-0.53L10.94-7.49L5.45-0.61Q4.83 0.20 3.85 0.20L3.85 0.20Z" transform="translate(-2.04778156996587, 30.10238907849829)"></path></g></g><g transform="translate(46, 2.2225675254881434)"><g><g class="imagesvg"><g><rect fill="#ffffff" fill-opacity="0" stroke-width="2" x="0" y="0" width="26.047781569965874" height="26.06681034151518" class="image-rect"></rect> <svg x="0" y="0" width="26.047781569965874" height="26.06681034151518" filtersec="colorsb8489717161" class="image-svg-svg primary" style="overflow: visible;"><svg xmlns="http://www.w3.org/2000/svg" viewBox="1.4169633388519287 1.3337960243225098 97.30947875976562 97.3803482055664"><g transform="matrix(.69 0 0 .69 15.5 15.5)"><path fill="#ffffff" d="M115.71 46.89c-2.92-.93-6.1.23-7.73 2.82-11.01 17.18-33.87 22.18-51.05 11.16a36.951 36.951 0 0 1-17.01-31.05C40.02 13.35 50.96-1.1 66.8-5.65c3.55-1.08 5.56-4.83 4.48-8.38a6.705 6.705 0 0 0-4.88-4.59C28.48-27.59-9.53-4.12-18.5 33.8s14.51 75.92 52.42 84.89c37.92 8.97 75.92-14.51 84.89-52.42.98-4.14 1.58-8.35 1.8-12.59a6.71 6.71 0 0 0-4.9-6.79zm-65.78 60.2c-31.54-.01-57.1-25.59-57.09-57.13.02-28.52 21.05-52.65 49.3-56.56-20.12 19.23-20.85 51.13-1.62 71.25 16.01 16.75 41.38 20.43 61.49 8.91a57.12 57.12 0 0 1-52.08 33.53z"></path></g></svg></svg> <!----></g></g></g></g><g transform="translate(76, 0)"><g data-gra="path-name" fill="#ffffff" transform="scale(1)"><path d="M5.08 0.20Q4.30 0.20 3.77-0.33Q3.24-0.86 3.24-1.64L3.24-1.64L3.24-28.22Q3.24-29.00 3.77-29.55Q4.30-30.10 5.08-30.10L5.08-30.10Q5.90-30.10 6.43-29.57Q6.96-29.04 6.96-28.22L6.96-28.22L6.96-1.64Q6.96-0.86 6.41-0.33Q5.86 0.20 5.08 0.20L5.08 0.20Z" transform="translate(-3.235494880546075, 30.10238907849829)"></path></g></g><g transform="translate(83, 0)"><g data-gra="path-name" fill="#ffffff" transform="scale(1)"><path d="M10.36 0.41Q8.11 0.41 6.45-0.66Q4.79-1.72 3.91-3.56Q3.03-5.41 3.03-7.62L3.03-7.62L3.03-19.25Q3.03-20.03 3.58-20.56Q4.14-21.09 4.91-21.09L4.91-21.09Q5.69-21.09 6.23-20.56Q6.76-20.03 6.76-19.25L6.76-19.25L6.76-8.03Q6.76-3.03 11.26-3.03L11.26-3.03Q13.31-3.03 14.93-4.10Q16.55-5.16 17.98-6.96L17.98-6.96L17.98-19.25Q17.98-20.03 18.53-20.56Q19.09-21.09 19.86-21.09L19.86-21.09Q20.64-21.09 21.17-20.56Q21.71-20.03 21.71-19.25L21.71-19.25L21.71-1.68Q21.71-0.90 21.17-0.35Q20.64 0.20 19.86 0.20L19.86 0.20Q19.09 0.20 18.53-0.35Q17.98-0.90 17.98-1.68L17.98-1.68L17.98-3.36Q16.42-1.64 14.62-0.61Q12.82 0.41 10.36 0.41L10.36 0.41Z" transform="translate(-3.030716723549488, 30.10238907849829)"></path></g></g><g transform="translate(105, 0)"><g data-gra="path-name" fill="#ffffff" transform="scale(1)"><path d="M9.99 0.41Q5.90 0.41 2.54-1.43L2.54-1.43Q1.84-1.92 1.84-2.78L1.84-2.78Q1.84-3.44 2.29-3.93Q2.74-4.42 3.44-4.42L3.44-4.42Q3.81-4.42 4.18-4.26L4.18-4.26Q5.49-3.69 6.80-3.36Q8.11-3.03 9.75-3.03L9.75-3.03Q14.29-3.03 14.29-5.94L14.29-5.94Q14.29-6.88 13.25-7.37Q12.20-7.86 9.83-8.48L9.83-8.48Q7.41-9.05 5.84-9.67Q4.26-10.28 3.13-11.53Q2.01-12.78 2.01-14.83L2.01-14.83Q2.01-17.69 4.08-19.49Q6.14-21.30 9.99-21.30L9.99-21.30Q13.15-21.30 15.93-20.27L15.93-20.27Q16.51-20.11 16.81-19.66Q17.12-19.21 17.12-18.72L17.12-18.72Q17.12-18.06 16.65-17.57Q16.18-17.08 15.48-17.08L15.48-17.08Q15.28-17.08 14.95-17.16L14.95-17.16Q12.57-17.90 10.28-17.90L10.28-17.90Q8.07-17.90 6.82-17.10Q5.57-16.30 5.57-15.03L5.57-15.03Q5.57-13.80 6.72-13.23Q7.86-12.66 10.28-12.12L10.28-12.12Q12.70-11.51 14.21-10.91Q15.73-10.32 16.81-9.05Q17.90-7.78 17.90-5.65L17.90-5.65Q17.90-3.03 15.83-1.31Q13.76 0.41 9.99 0.41L9.99 0.41Z" transform="translate(-1.8430034129692836, 30.10238907849829)"></path></g></g><g transform="translate(125, 0)"><g data-gra="path-name" fill="#ffffff" transform="scale(1)"><path d="M5.00-25.15Q4.14-25.15 3.52-25.76Q2.91-26.38 2.91-27.24L2.91-27.24L2.91-27.40Q2.91-28.26 3.52-28.87Q4.14-29.49 5.00-29.49L5.00-29.49L5.24-29.49Q6.10-29.49 6.72-28.87Q7.33-28.26 7.33-27.40L7.33-27.40L7.33-27.24Q7.33-26.38 6.72-25.76Q6.10-25.15 5.24-25.15L5.24-25.15L5.00-25.15ZM5.08 0.20Q4.30 0.20 3.77-0.33Q3.24-0.86 3.24-1.64L3.24-1.64L3.24-19.21Q3.24-19.99 3.77-20.54Q4.30-21.09 5.08-21.09L5.08-21.09Q5.90-21.09 6.43-20.56Q6.96-20.03 6.96-19.21L6.96-19.21L6.96-1.64Q6.96-0.86 6.41-0.33Q5.86 0.20 5.08 0.20L5.08 0.20Z" transform="translate(-2.9078498293515356, 30.10238907849829)"></path></g></g><g transform="translate(133, 0)"><g data-gra="path-name" fill="#ffffff" transform="scale(1)"><path d="M10.65 0.20Q9.91 0.20 9.30-0.23Q8.68-0.66 8.40-1.31L8.40-1.31L1.27-18.35Q1.06-18.84 1.06-19.21L1.06-19.21Q1.06-19.99 1.60-20.54Q2.13-21.09 2.91-21.09L2.91-21.09Q3.44-21.09 3.91-20.78Q4.38-20.48 4.59-20.03L4.59-20.03L10.85-4.14L17.12-20.03Q17.32-20.48 17.80-20.78Q18.27-21.09 18.80-21.09L18.80-21.09Q19.58-21.09 20.11-20.54Q20.64-19.99 20.64-19.21L20.64-19.21Q20.64-18.84 20.44-18.35L20.44-18.35L13.31-1.31Q13.02-0.66 12.41-0.23Q11.80 0.20 11.06 0.20L11.06 0.20L10.65 0.20Z" transform="translate(-1.0648464163822526, 30.10238907849829)"></path></g></g><g transform="translate(156, 0)"><g data-gra="path-name" fill="#ffffff" transform="scale(1)"><path d="M12.57 0.41Q7.58 0.41 4.77-2.44Q1.97-5.28 1.97-10.44L1.97-10.44Q1.97-13.35 3.03-15.81Q4.10-18.27 6.31-19.78Q8.52-21.30 11.75-21.30L11.75-21.30Q14.78-21.30 17.00-19.88Q19.21-18.47 20.35-16.12Q21.50-13.76 21.50-10.98L21.50-10.98Q21.50-10.20 20.99-9.67Q20.48-9.13 19.62-9.13L19.62-9.13L5.73-9.13Q6.06-6.27 7.86-4.67Q9.67-3.07 12.90-3.07L12.90-3.07Q14.62-3.07 15.91-3.40Q17.20-3.73 18.43-4.34L18.43-4.34Q18.76-4.51 19.17-4.51L19.17-4.51Q19.82-4.51 20.31-4.05Q20.81-3.60 20.81-2.91L20.81-2.91Q20.81-2.01 19.74-1.39L19.74-1.39Q18.14-0.49 16.59-0.04Q15.03 0.41 12.57 0.41L12.57 0.41ZM5.73-12.16L17.82-12.16Q17.69-14.17 16.77-15.52Q15.85-16.87 14.50-17.51Q13.15-18.14 11.75-18.14L11.75-18.14Q10.36-18.14 9.01-17.51Q7.66-16.87 6.76-15.52Q5.86-14.17 5.73-12.16L5.73-12.16Z" transform="translate(-1.9658703071672359, 30.10238907849829)"></path></g></g></g> <!----></g><defs v-gra="od"></defs></svg>